HIERARCHY
ROOT Hips
{
	OFFSET 0.000000 0.000000 0.000000
	CHANNELS 6 Xposition Yposition Zposition Zrotation Yrotation Xrotation 
	JOINT LowerBack
	{
		OFFSET 0.000000 0.000000 0.000000
		CHANNELS 3 Zrotation Yrotation Xrotation
		JOINT Spine
		{
			OFFSET 0.028270 2.035590 -0.193380
			CHANNELS 3 Zrotation Yrotation Xrotation
			JOINT Spine1
			{
				OFFSET 0.056720 2.048850 -0.042750
				CHANNELS 3 Zrotation Yrotation Xrotation
				JOINT Neck
				{
					OFFSET 0.000000 0.000000 0.000000
					CHANNELS 3 Zrotation Yrotation Xrotation
					JOINT Neck1
					{
						OFFSET -0.054170 1.746240 0.172020
						CHANNELS 3 Zrotation Yrotation Xrotation
						JOINT Head
						{
							OFFSET 0.104070 1.761360 -0.123970
							CHANNELS 3 Zrotation Yrotation Xrotation
							End Site
							{
								OFFSET 0.000000 0.000000 0.000000
							}
						}
					}
				}
				JOINT LeftShoulder
				{
					OFFSET 0.000000 0.000000 0.000000
					CHANNELS 3 Zrotation Yrotation Xrotation
					JOINT LeftArm
					{
						OFFSET 3.362410 1.200890 -0.311210
						CHANNELS 3 Zrotation Yrotation Xrotation
						JOINT LeftForeArm
						{
							OFFSET 4.983000 -0.000000 -0.000000
							CHANNELS 3 Zrotation Yrotation Xrotation
							JOINT LeftHand
							{
								OFFSET 3.483560 -0.000000 -0.000000
								CHANNELS 3 Zrotation Yrotation Xrotation
								JOINT LeftFingerBase
								{
									OFFSET 0.000000 0.000000 0.000000
									CHANNELS 3 Zrotation Yrotation Xrotation
									JOINT LeftHandIndex1
									{
										OFFSET 0.715260 -0.000000 -0.000000
										CHANNELS 3 Zrotation Yrotation Xrotation
										End Site
										{
											OFFSET 0.000000 0.000000 0.000000
										}
									}
								}
								JOINT LThumb
								{
									OFFSET 0.000000 0.000000 0.000000
									CHANNELS 3 Zrotation Yrotation Xrotation
									End Site
									{
										OFFSET 0.000000 0.000000 0.000000
									}
								}
							}
						}
					}
				}
				JOINT RightShoulder
				{
					OFFSET 0.000000 0.000000 0.000000
					CHANNELS 3 Zrotation Yrotation Xrotation
					JOINT RightArm
					{
						OFFSET -3.136600 1.374050 -0.404650
						CHANNELS 3 Zrotation Yrotation Xrotation
						JOINT RightForeArm
						{
							OFFSET -5.241900 -0.000000 -0.000000
							CHANNELS 3 Zrotation Yrotation Xrotation
							JOINT RightHand
							{
								OFFSET -3.444170 -0.000000 -0.000000
								CHANNELS 3 Zrotation Yrotation Xrotation
								JOINT RightFingerBase
								{
									OFFSET 0.000000 0.000000 0.000000
									CHANNELS 3 Zrotation Yrotation Xrotation
									JOINT RightHandIndex1
									{
										OFFSET -0.622530 -0.000000 -0.000000
										CHANNELS 3 Zrotation Yrotation Xrotation
										End Site
										{
											OFFSET 0.000000 0.000000 0.000000
										}
									}
								}
								JOINT RThumb
								{
									OFFSET 0.000000 0.000000 0.000000
									CHANNELS 3 Zrotation Yrotation Xrotation
									End Site
									{
										OFFSET 0.000000 0.000000 0.000000
									}
								}
							}
						}
					}
				}
			}
		}
	}
}
}
MOTION
Frames: 6
Frame Time: 0.008333
6.385465 17.427113 -0.001473 74.037346 88.773315 81.500599 -0.784662 -3.031939 -3.973486 -0.893122 -3.143460 -3.395699 -6.982631 -3.183493 1.263464 10.964893 -12.479728 -8.435868 -3.782359 -0.286069 -0.190683 0.000000 0.000000 0.000000 -1.991147 8.441842 0.825553 -63.670495 -6.604580 21.254663 -2.538798 -41.564891 -0.006066 5.695002 0.129547 0.003569 -0.124708 0.081744 0.000000 0.000000 0.000000 0.000000 0.000000 0.000000 0.000000 19.406066 -9.760075 0.201948 67.255279 0.852490 3.999947 3.015406 32.420956 0.008070 0.292680 4.289213 0.008553 0.085303 -0.076277 -0.000000 0.000000 0.000000 0.000000 0.000000 0.000000 0.000000 
6.500960 17.419968 0.005787 74.943457 88.698223 82.531113 -0.749846 -3.220361 -4.078167 -0.862568 -3.335280 -3.398768 -6.951593 -3.374320 1.298132 10.953657 -12.824903 -8.462993 -3.776539 -0.285226 -0.195420 0.000000 0.000000 0.000000 -1.837229 8.045564 0.826541 -63.336063 -7.340399 21.269693 -2.530753 -42.049039 -0.006723 5.774099 0.077220 0.000613 -0.127308 0.089123 0.000000 0.000000 0.000000 0.000000 0.000000 0.000000 0.000000 19.426473 -10.257022 0.191088 66.907831 0.590826 3.928082 3.001741 32.817286 0.008010 0.253109 4.257224 0.006949 0.086028 -0.074968 -0.000000 0.000000 0.000000 0.000000 0.000000 0.000000 0.000000 
6.617026 17.412178 0.014040 75.826226 88.617291 83.535888 -0.729164 -3.407485 -4.184334 -0.835339 -3.524642 -3.403710 -6.921852 -3.562873 1.327576 10.946905 -13.155814 -8.483908 -3.771238 -0.284514 -0.198405 0.000000 0.000000 0.000000 -1.670559 7.637141 0.828154 -62.994067 -8.025795 21.217102 -2.521525 -42.538351 -0.007403 5.844089 0.037294 -0.001845 -0.129616 0.096403 0.000000 0.000000 0.000000 0.000000 0.000000 0.000000 0.000000 19.446957 -10.736073 0.179703 66.586213 0.301220 3.785961 2.987362 33.222663 0.007971 0.215650 4.240298 0.005545 0.086666 -0.073896 -0.000000 0.000000 0.000000 0.000000 0.000000 0.000000 0.000000 
6.733750 17.403738 0.023221 76.682022 88.531909 84.511440 -0.721027 -3.593168 -4.290601 -0.810817 -3.711418 -3.408798 -6.891943 -3.748852 1.357701 10.944525 -13.491368 -8.506236 -3.764453 -0.283683 -0.201705 0.000000 0.000000 0.000000 -1.495120 7.234862 0.828640 -62.648053 -8.684602 21.116156 -2.511686 -43.017191 -0.008100 5.907300 0.007162 -0.003806 -0.131703 0.103577 0.000000 0.000000 0.000000 0.000000 0.000000 0.000000 0.000000 19.464883 -11.217293 0.166866 66.289535 0.011144 3.605354 2.972681 33.617024 0.007958 0.165171 4.244049 0.003542 0.087387 -0.073048 -0.000000 0.000000 0.000000 0.000000 0.000000 0.000000 0.000000 
6.851176 17.394694 0.033346 77.477212 88.442335 85.423243 -0.724688 -3.776752 -4.396333 -0.788887 -3.894953 -3.414358 -6.861408 -3.931664 1.386834 10.944305 -13.826220 -8.528129 -3.755927 -0.282734 -0.204809 0.000000 0.000000 0.000000 -1.309679 6.834133 0.828118 -62.303175 -9.309834 20.965598 -2.500923 -43.483709 -0.008809 5.964866 -0.016665 -0.005468 -0.133534 0.110653 0.000000 0.000000 0.000000 0.000000 0.000000 0.000000 0.000000 19.474896 -11.694791 0.153364 66.024946 -0.287311 3.371408 2.958003 33.998545 0.007966 0.106042 4.264781 0.001340 0.088160 -0.072419 -0.000000 0.000000 0.000000 0.000000 0.000000 0.000000 0.000000 
6.969378 17.385077 0.044418 78.165317 88.349335 86.223891 -0.739560 -3.957641 -4.500790 -0.769477 -4.074656 -3.420948 -6.830060 -4.110823 1.412488 10.944082 -14.152248 -8.546922 -3.745665 -0.281698 -0.206988 0.000000 0.000000 0.000000 -1.112001 6.428281 0.826891 -61.964221 -9.890117 20.762261 -2.488810 -43.939097 -0.009524 6.017531 -0.037580 -0.006933 -0.135067 0.117642 0.000000 0.000000 0.000000 0.000000 0.000000 0.000000 0.000000 19.472076 -12.159603 0.140280 65.800031 -0.606392 3.065719 2.943577 34.368797 0.007992 0.046596 4.295408 -0.000961 0.088917 -0.071995 -0.000000 0.000000 0.000000 0.000000 0.000000 0.000000 0.000000 
